<svg width="222" height="258" viewBox="0 0 222 258" fill="none" xmlns="http://www.w3.org/2000/svg">
<rect width="222" height="258" rx="50" fill="#BCFBFF"/>
<path fill-rule="evenodd" clip-rule="evenodd" d="M204.227 120.342L119.283 35.4039C114.394 30.5112 106.46 30.5112 101.565 35.4039L83.9263 53.0426L106.302 75.4181C111.502 73.6613 117.464 74.8396 121.61 78.9851C125.774 83.1562 126.944 89.1696 125.145 94.3867L146.709 115.951C151.926 114.154 157.946 115.317 162.113 119.49C167.936 125.312 167.936 134.747 162.113 140.572C156.287 146.398 146.852 146.398 141.024 140.572C136.644 136.188 135.562 129.754 137.78 124.357L117.669 104.247L117.667 157.169C119.086 157.874 120.427 158.811 121.61 159.989C127.433 165.81 127.433 175.246 121.61 181.075C115.784 186.899 106.345 186.899 100.528 181.075C94.7042 175.246 94.7042 165.81 100.528 159.989C101.966 158.552 103.631 157.466 105.407 156.736V103.32C103.631 102.594 101.968 101.514 100.528 100.067C96.1152 95.6611 95.0543 89.1867 97.3149 83.7689L75.2596 61.7093L17.0154 119.949C12.1206 124.846 12.1206 132.781 17.0154 137.673L101.96 222.614C106.85 227.506 114.783 227.506 119.68 222.614L204.227 138.068C209.12 133.173 209.12 125.235 204.227 120.342Z" fill="#DE4C36"/>
</svg>
