<svg width="222" height="258" viewBox="0 0 222 258" fill="none" xmlns="http://www.w3.org/2000/svg">
<rect width="222" height="258" rx="50" fill="#BCFBFF"/>
<g clip-path="url(#clip0_255_951)">
<path d="M11 101.381C11 76.0452 11 63.3774 15.9307 53.7004C20.2678 45.1883 27.1883 38.2678 35.7004 33.9307C45.3774 29 58.0452 29 83.381 29H138.619C163.955 29 176.623 29 186.3 33.9307C194.812 38.2678 201.732 45.1883 206.069 53.7004C211 63.3774 211 76.0452 211 101.381V156.619C211 181.955 211 194.623 206.069 204.3C201.732 212.812 194.812 219.732 186.3 224.069C176.623 229 163.955 229 138.619 229H83.3809C58.0452 229 45.3774 229 35.7004 224.069C27.1883 219.732 20.2678 212.812 15.9307 204.3C11 194.623 11 181.955 11 156.619V101.381Z" fill="#330000"/>
<path d="M107.917 154.688H76.9248L70.619 174.778C70.4439 175.525 69.7566 176.053 69.0089 176.017H53.3115C52.4163 176.017 52.1033 175.512 52.3723 174.503L79.2055 95.2414C79.474 94.416 79.7425 93.4756 80.0107 92.4205C80.3617 90.5845 80.5414 88.7185 80.5474 86.8476C80.4705 86.2949 80.9563 85.8067 81.4866 85.8842H102.819C103.444 85.8842 103.802 86.1136 103.892 86.5724L134.348 174.641C134.616 175.559 134.348 176.017 133.543 176.017H116.101C115.489 176.086 114.905 175.667 114.76 175.053L107.917 154.688ZM81.7547 137.349H102.953C99.4703 125.448 95.5397 113.703 92.3541 101.709C88.917 113.723 85.167 125.689 81.7547 137.349Z" fill="#FF9A00"/>
<path d="M152.459 100.47C151.091 100.527 149.726 100.286 148.454 99.7643C147.183 99.2427 146.033 98.4516 145.08 97.4428C144.129 96.3903 143.391 95.1556 142.908 93.8095C142.424 92.4634 142.205 91.0326 142.262 89.5992C142.213 88.1801 142.457 86.7663 142.977 85.4503C143.497 84.1343 144.282 82.9457 145.281 81.962C146.27 80.9885 147.437 80.2258 148.715 79.718C149.993 79.2102 151.357 78.9673 152.727 79.0035C155.947 79.0035 158.474 79.9897 160.308 81.962C161.233 82.987 161.953 84.1892 162.424 85.4997C162.896 86.8102 163.112 88.2033 163.058 89.5992C163.114 91.0382 162.888 92.474 162.392 93.8214C161.897 95.1688 161.142 96.4003 160.173 97.4428C159.161 98.4664 157.953 99.2638 156.625 99.7848C155.298 100.306 153.879 100.539 152.459 100.47ZM143.201 174.64V108.864C143.201 108.039 143.558 107.626 144.275 107.626H160.777C161.492 107.626 161.85 108.038 161.851 108.864V174.64C161.851 175.558 161.493 176.017 160.777 176.016H144.409C143.604 176.016 143.202 175.558 143.201 174.64Z" fill="#FF9A00"/>
</g>
<defs>
<clipPath id="clip0_255_951">
<rect width="200" height="200" fill="white" transform="translate(11 29)"/>
</clipPath>
</defs>
</svg>
