<svg width="222" height="258" viewBox="0 0 222 258" fill="none" xmlns="http://www.w3.org/2000/svg">
<rect width="222" height="258" rx="50" fill="#BCFBFF"/>
<g clip-path="url(#clip0_255_957)">
<path d="M110.04 29.7812C59.3899 29.7813 62.5528 51.7462 62.5528 51.7462L62.6093 74.5017H110.944V81.334H43.4111C43.4111 81.334 11 77.6583 11 128.765C11 179.871 39.2891 178.059 39.2891 178.059H56.1722V154.344C56.1722 154.344 55.2622 126.055 84.0096 126.055H131.949C131.949 126.055 158.883 126.49 158.883 100.024V56.2635C158.883 56.2635 162.972 29.7812 110.04 29.7812ZM83.3885 45.0833C88.1974 45.0833 92.0841 48.9701 92.0841 53.779C92.0841 58.5879 88.1974 62.4746 83.3885 62.4746C78.5796 62.4746 74.6928 58.5879 74.6928 53.779C74.6928 48.9701 78.5796 45.0833 83.3885 45.0833Z" fill="url(#paint0_linear_255_957)"/>
<path d="M111.479 228.261C162.129 228.261 158.966 206.296 158.966 206.296L158.91 183.54H110.575V176.708H178.108C178.108 176.708 210.519 180.384 210.519 129.277C210.519 78.1708 182.23 79.9832 182.23 79.9832H165.347V103.699C165.347 103.699 166.257 131.988 137.509 131.988H89.5702C89.5702 131.988 62.6362 131.552 62.6362 158.018V201.779C62.6362 201.779 58.5469 228.261 111.479 228.261ZM138.13 212.959C133.321 212.959 129.435 209.072 129.435 204.263C129.435 199.454 133.321 195.568 138.13 195.568C142.939 195.568 146.826 199.454 146.826 204.263C146.826 209.072 142.939 212.959 138.13 212.959Z" fill="url(#paint1_linear_255_957)"/>
</g>
<defs>
<linearGradient id="paint0_linear_255_957" x1="30.1741" y1="47.634" x2="129.048" y2="145.522" gradientUnits="userSpaceOnUse">
<stop stop-color="#387EB8"/>
<stop offset="1" stop-color="#366994"/>
</linearGradient>
<linearGradient id="paint1_linear_255_957" x1="90.8633" y1="110.491" x2="197.044" y2="210.867" gradientUnits="userSpaceOnUse">
<stop stop-color="#FFE052"/>
<stop offset="1" stop-color="#FFC331"/>
</linearGradient>
<clipPath id="clip0_255_957">
<rect width="200" height="200" fill="white" transform="translate(11 29)"/>
</clipPath>
</defs>
</svg>
