<svg width="231" height="268" viewBox="0 0 231 268" fill="none" xmlns="http://www.w3.org/2000/svg">
<rect y="5" width="231" height="258" rx="50" fill="#BCFBFF"/>
<path d="M114.902 87.3472C78.0236 87.3472 48.125 75.2609 48.125 59.307V208.693C48.125 224.043 77.5027 236.492 113.964 236.733H114.902C151.781 236.733 181.679 224.647 181.679 208.693V59.307C181.679 74.8983 151.781 87.3472 114.902 87.3472Z" fill="url(#paint0_linear_255_958)"/>
<path d="M181.679 59.3069C181.679 74.8982 151.781 87.347 114.902 87.347C78.0236 87.347 48.125 75.2607 48.125 59.3069C48.125 43.353 78.0236 31.2667 114.902 31.2667C151.781 31.2667 181.679 43.353 181.679 59.3069Z" fill="#E8E8E8"/>
<path d="M166.157 57.0101C166.157 66.9208 143.134 74.8978 114.902 74.8978C86.6702 74.8978 63.6472 66.9208 63.6472 57.0101C63.6472 47.0994 86.6702 39.2433 114.902 39.2433C143.134 39.2433 166.157 47.2202 166.157 57.0101Z" fill="#50E6FF"/>
<path d="M114.902 61.4825C101.154 61.0751 87.447 63.4053 74.3774 68.3717C87.4594 73.2458 101.17 75.454 114.902 74.8983C128.662 75.3659 142.383 72.9923 155.427 67.8882C142.32 63.1515 128.623 60.9865 114.902 61.4825Z" fill="#198AB3"/>
<path d="M155.531 163.007V121.914H146.155V171.83H171.783V163.007H155.531ZM81.1491 142.823C79.2133 141.92 77.4185 140.654 75.8361 139.076C75.4159 138.561 75.0889 137.953 74.8742 137.289C74.6595 136.625 74.5615 135.918 74.586 135.209C74.5541 134.499 74.6812 133.792 74.9551 133.157C75.229 132.521 75.6402 131.979 76.1486 131.583C77.4299 130.554 78.9678 130.045 80.524 130.133C84.2344 129.939 87.8962 131.171 90.9417 133.638V123.243C87.6134 121.807 84.0726 121.149 80.524 121.31C76.4369 121.057 72.4074 122.515 69.1688 125.419C67.7572 126.682 66.6244 128.315 65.8637 130.185C65.103 132.056 64.7361 134.109 64.7934 136.176C64.7934 142.34 68.1271 147.174 75.211 150.8C77.5118 151.933 79.6816 153.394 81.67 155.151C82.157 155.625 82.5491 156.217 82.819 156.885C83.0889 157.553 83.23 158.281 83.2326 159.019C83.2329 159.752 83.0817 160.475 82.7917 161.127C82.5017 161.779 82.0814 162.341 81.5658 162.765C80.148 163.729 78.5188 164.191 76.8779 164.095C72.6877 164.055 68.6526 162.251 65.5226 159.019V170.259C68.9629 172.317 72.8011 173.316 76.6695 173.16C81.0361 173.46 85.3636 172.056 88.9623 169.171C90.2334 167.775 91.206 166.053 91.8028 164.144C92.3996 162.234 92.6042 160.19 92.4002 158.173C92.4502 155.078 91.524 152.07 89.7958 149.712C87.3617 146.738 84.4158 144.391 81.1491 142.823ZM135.738 162.04C138.103 157.444 139.295 152.163 139.175 146.812C138.94 142.281 137.76 137.885 135.738 134C134.111 130.226 131.579 127.078 128.445 124.935C125.27 122.847 121.677 121.764 118.028 121.793C114.093 121.693 110.207 122.82 106.777 125.056C103.56 127.138 100.922 130.241 99.1716 134C97.3274 138.274 96.3983 143 96.463 147.778C96.4848 151.977 97.3404 156.112 98.9633 159.865C100.553 163.598 103.052 166.708 106.151 168.809C109.298 171.035 112.886 172.284 116.569 172.434L125.528 184.521H138.134L125.32 171.226C129.635 169.724 133.335 166.461 135.738 162.04ZM125.32 159.019C124.371 160.385 123.163 161.478 121.789 162.212C120.416 162.946 118.914 163.301 117.403 163.249C115.88 163.306 114.367 162.941 112.99 162.184C111.613 161.428 110.412 160.301 109.485 158.898C107.283 155.407 106.213 151.127 106.464 146.812C106.222 142.497 107.291 138.22 109.485 134.725C110.466 133.323 111.704 132.193 113.111 131.42C114.517 130.646 116.055 130.247 117.611 130.253C119.132 130.177 120.645 130.547 122.011 131.329C123.377 132.11 124.55 133.278 125.424 134.725C127.476 138.288 128.465 142.534 128.237 146.812C128.6 151.159 127.561 155.509 125.32 159.019Z" fill="url(#paint1_radial_255_958)"/>
<defs>
<linearGradient id="paint0_linear_255_958" x1="48.125" y1="148.02" x2="181.679" y2="148.02" gradientUnits="userSpaceOnUse">
<stop stop-color="#005BA1"/>
<stop offset="0.07" stop-color="#0060A9"/>
<stop offset="0.36" stop-color="#0071C8"/>
<stop offset="0.52" stop-color="#0078D4"/>
<stop offset="0.64" stop-color="#0074CD"/>
<stop offset="0.82" stop-color="#006ABB"/>
<stop offset="1" stop-color="#005BA1"/>
</linearGradient>
<radialGradient id="paint1_radial_255_958" cx="0" cy="0" r="1" gradientUnits="userSpaceOnUse" gradientTransform="translate(118.653 152.976) scale(73.6527 85.4499)">
<stop stop-color="#F2F2F2"/>
<stop offset="0.58" stop-color="#EEEEEE"/>
<stop offset="1" stop-color="#E6E6E6"/>
</radialGradient>
</defs>
</svg>
