<svg width="222" height="258" viewBox="0 0 222 258" fill="none" xmlns="http://www.w3.org/2000/svg">
<rect width="222" height="258" rx="50" fill="#BCFBFF"/>
<path fill-rule="evenodd" clip-rule="evenodd" d="M197.6 88.7982C197.599 85.5226 196.898 82.6282 195.481 80.1441C194.09 77.7013 192.006 75.6539 189.21 74.0351C166.136 60.7302 143.039 47.4659 119.971 34.1473C113.753 30.5571 107.723 30.688 101.55 34.3297C92.366 39.7463 46.3828 66.0911 32.6804 74.0277C27.0373 77.2944 24.2914 82.2939 24.2901 88.7921C24.2812 115.549 24.2901 142.306 24.2812 169.063C24.2826 172.267 24.9533 175.105 26.3076 177.552C27.6999 180.069 29.8131 182.172 32.6729 183.828C46.376 191.764 92.3653 218.107 101.548 223.525C107.723 227.169 113.753 227.299 119.974 223.708C143.041 210.388 166.14 197.125 189.218 183.82C192.078 182.165 194.191 180.06 195.583 177.545C196.935 175.099 197.608 172.26 197.609 169.056C197.609 169.056 197.609 115.556 197.6 88.7982" fill="#5C8DBC"/>
<path fill-rule="evenodd" clip-rule="evenodd" d="M111.21 128.667L26.3076 177.552C27.6999 180.069 29.8131 182.172 32.6729 183.828C46.376 191.764 92.3653 218.107 101.548 223.525C107.723 227.169 113.753 227.299 119.974 223.708C143.041 210.388 166.14 197.125 189.218 183.82C192.078 182.165 194.191 180.06 195.583 177.545L111.21 128.667" fill="#1A4674"/>
<path fill-rule="evenodd" clip-rule="evenodd" d="M86.063 143.147C91.0034 151.772 100.291 157.59 110.945 157.59C121.665 157.59 131.005 151.698 135.921 142.981L111.21 128.667L86.063 143.147" fill="#1A4674"/>
<path fill-rule="evenodd" clip-rule="evenodd" d="M197.6 88.7982C197.599 85.5226 196.898 82.6282 195.481 80.144L111.21 128.667L195.583 177.545C196.935 175.098 197.607 172.26 197.609 169.056C197.609 169.056 197.609 115.556 197.6 88.7982" fill="#1B598E"/>
<path fill-rule="evenodd" clip-rule="evenodd" d="M192.961 132.161H186.368V138.755H179.773V132.161H173.181V125.568H179.773V118.975H186.368V125.568H192.961V132.161" fill="white"/>
<path fill-rule="evenodd" clip-rule="evenodd" d="M168.903 132.161H162.31V138.755H155.717V132.161H149.124V125.568H155.717V118.975H162.31V125.568H168.903V132.161" fill="white"/>
<path fill-rule="evenodd" clip-rule="evenodd" d="M135.921 142.981C131.005 151.698 121.665 157.589 110.945 157.589C100.291 157.589 91.0035 151.772 86.063 143.147C83.663 138.956 82.2829 134.104 82.2829 128.927C82.2829 113.098 95.1159 100.266 110.945 100.266C121.531 100.266 130.769 106.011 135.734 114.548L160.786 100.122C150.829 82.9327 132.238 71.3685 110.945 71.3685C79.1552 71.3685 53.3855 97.1389 53.3855 128.927C53.3855 139.356 56.1599 149.136 61.0088 157.572C70.9412 174.852 89.5848 186.487 110.945 186.487C132.345 186.487 151.017 174.805 160.936 157.474L135.921 142.981" fill="white"/>
</svg>
