<svg width="222" height="258" viewBox="0 0 222 258" fill="none" xmlns="http://www.w3.org/2000/svg">
<rect width="222" height="258" rx="50" fill="#BCFBFF"/>
<path fill-rule="evenodd" clip-rule="evenodd" d="M38.7681 209.006L22.7188 29H199.076L183.009 208.977L110.791 229L38.7681 209.006Z" fill="#0071BC"/>
<path fill-rule="evenodd" clip-rule="evenodd" d="M111.045 213.686L169.329 197.652L182.985 43.9908H111.045V213.686Z" fill="#29ABE2"/>
<path fill-rule="evenodd" clip-rule="evenodd" d="M59.4557 110.124L61.389 132.169L111.045 110.124V88.0439L59.4557 110.124Z" fill="#B3B3B3"/>
<path fill-rule="evenodd" clip-rule="evenodd" d="M166.041 64.4742L111.045 88.0439V110.124L164.145 86.5189L166.041 64.4742Z" fill="#E6E6E6"/>
<path fill-rule="evenodd" clip-rule="evenodd" d="M111.045 167.804L110.875 167.829L86.2487 161.216L84.6399 143.632H62.4767L65.5695 178.273L110.87 190.816L111.045 190.775V167.804Z" fill="#E6E6E6"/>
<path fill-rule="evenodd" clip-rule="evenodd" d="M111.045 110.124V132.169H138.007L135.556 160.991L111.045 167.823V190.792L156.195 178.249L162.141 110.124H111.045Z" fill="white"/>
<path fill-rule="evenodd" clip-rule="evenodd" d="M111.045 110.124H59.4557L61.389 132.169H111.045V110.124Z" fill="#E6E6E6"/>
<path fill-rule="evenodd" clip-rule="evenodd" d="M111.045 86.5189V64.4742H110.821H55.5361L57.4924 86.5189H111.045Z" fill="#E6E6E6"/>
<path fill-rule="evenodd" clip-rule="evenodd" d="M111.045 64.4742V86.2424V86.5189H164.145L166.041 64.4742H111.045Z" fill="white"/>
</svg>
