<svg width="222" height="258" viewBox="0 0 222 258" fill="none" xmlns="http://www.w3.org/2000/svg">
<rect width="222" height="258" rx="50" fill="#BCFBFF"/>
<g clip-path="url(#clip0_255_950)">
<path d="M11 101.381C11 76.0452 11 63.3774 15.9307 53.7004C20.2678 45.1883 27.1883 38.2678 35.7004 33.9307C45.3774 29 58.0452 29 83.381 29H138.619C163.955 29 176.623 29 186.3 33.9307C194.812 38.2678 201.732 45.1883 206.069 53.7004C211 63.3774 211 76.0452 211 101.381V156.619C211 181.955 211 194.623 206.069 204.3C201.732 212.812 194.812 219.732 186.3 224.069C176.623 229 163.955 229 138.619 229H83.3809C58.0452 229 45.3774 229 35.7004 224.069C27.1883 219.732 20.2678 212.812 15.9307 204.3C11 194.623 11 181.955 11 156.619V101.381Z" fill="#001E36"/>
<path d="M53.8572 175.545V87.5958C53.8572 86.9975 54.1072 86.6556 54.6905 86.6556C63.3021 86.6556 71.9099 86.1428 80.5238 86.1428C94.5012 86.1428 109.636 90.9221 114.941 105.545C116.191 109.134 116.857 112.809 116.857 116.656C116.857 124.006 115.191 130.074 111.857 134.861C102.546 148.231 86.4072 148.023 71.9405 148.023V175.459C72.0536 176.271 71.3615 176.656 70.6905 176.656H54.8572C54.1905 176.656 53.8572 176.314 53.8572 175.545ZM72.0238 103.151V131.869C77.7599 132.29 83.7624 132.335 89.2738 130.502C95.3583 128.747 98.6905 123.48 98.6905 117.168C98.8597 111.791 95.9292 106.631 90.9405 104.69C85.4955 102.426 77.9015 102.29 72.0238 103.151Z" fill="#31A8FF"/>
<path d="M168.833 126.196C166.312 124.867 163.626 123.895 160.85 123.306C157.283 122.466 143.213 119.526 143.207 126.883C143.332 130.991 149.852 133.003 152.733 134.177C162.846 137.649 174.291 143.855 174.066 156.331C174.375 171.863 159.327 178.072 146.427 178.073C139.712 178.143 132.716 177.103 126.571 174.22C125.984 173.91 125.606 173.245 125.631 172.569V157.707C125.565 157.111 126.205 156.591 126.705 157.019C132.726 160.661 139.864 162.429 146.83 162.524C149.905 162.524 155.999 162.225 155.953 157.707C155.953 153.372 148.663 151.378 145.756 150.277C141.544 148.773 137.549 146.69 133.883 144.084C128.759 140.429 125.544 134.569 125.631 128.122C125.601 113.498 139.453 106.934 151.928 106.93C157.76 106.882 164.023 107.314 169.451 109.683C170.232 109.912 170.394 110.735 170.39 111.471V125.37C170.44 126.233 169.482 126.526 168.833 126.196Z" fill="#31A8FF"/>
</g>
<defs>
<clipPath id="clip0_255_950">
<rect width="200" height="200" fill="white" transform="translate(11 29)"/>
</clipPath>
</defs>
</svg>
