<svg width="222" height="258" viewBox="0 0 222 258" fill="none" xmlns="http://www.w3.org/2000/svg">
<rect width="222" height="258" rx="50" fill="#BCFBFF"/>
<path fill-rule="evenodd" clip-rule="evenodd" d="M38.7677 209.007L22.7188 29H199.069L183.003 208.979L110.786 229L38.7677 209.007Z" fill="#E44D26"/>
<path fill-rule="evenodd" clip-rule="evenodd" d="M110.894 213.697L169.248 197.519L182.978 43.7183H110.894V213.697Z" fill="#F16529"/>
<path d="M81.6798 110.48H110.894V132.557H61.4893L55.5347 65.7957H110.894V87.8731H79.6622L81.6798 110.48Z" fill="#EBEBEB"/>
<path d="M110.797 167.843L110.894 167.817V190.787L110.792 190.815L65.5687 178.261L62.4757 143.596H84.6377L86.2095 161.204L110.797 167.843Z" fill="#EBEBEB"/>
<path d="M110.817 65.7957H166.121L164.144 87.8731H110.817V65.7957Z" fill="white"/>
<path d="M110.817 132.557V110.48H162.135L161.597 116.409L156.077 178.261L110.817 190.804V167.836L135.44 161.19L138.003 132.557H110.817Z" fill="white"/>
</svg>
