<svg width="222" height="258" viewBox="0 0 222 258" fill="none" xmlns="http://www.w3.org/2000/svg">
<rect width="222" height="258" rx="50" fill="#BCFBFF"/>
<path d="M77.9271 229C96.3271 229 111.26 214.067 111.26 195.667V162.333H77.9271C59.5271 162.333 44.5938 177.267 44.5938 195.667C44.5938 214.067 59.5271 229 77.9271 229Z" fill="#0ACF83"/>
<path d="M44.5938 129C44.5938 110.6 59.5271 95.6666 77.9271 95.6666H111.26V162.333H77.9271C59.5271 162.333 44.5938 147.4 44.5938 129Z" fill="#A259FF"/>
<path d="M44.5938 62.3333C44.5938 43.9333 59.5271 29 77.9271 29H111.26V95.6667H77.9271C59.5271 95.6667 44.5938 80.7333 44.5938 62.3333Z" fill="#F24E1E"/>
<path d="M111.26 29H144.594C162.994 29 177.927 43.9333 177.927 62.3333C177.927 80.7333 162.994 95.6667 144.594 95.6667H111.26V29Z" fill="#FF7262"/>
<path d="M177.927 129C177.927 147.4 162.994 162.333 144.594 162.333C126.194 162.333 111.26 147.4 111.26 129C111.26 110.6 126.194 95.6666 144.594 95.6666C162.994 95.6666 177.927 110.6 177.927 129Z" fill="#1ABCFE"/>
</svg>
