<svg width="222" height="258" viewBox="0 0 222 258" fill="none" xmlns="http://www.w3.org/2000/svg">
<rect width="222" height="258" rx="50" fill="#BCFBFF"/>
<g clip-path="url(#clip0_255_955)">
<path fill-rule="evenodd" clip-rule="evenodd" d="M11 29H211V229H11V29V29Z" fill="#F7DF1E"/>
<path fill-rule="evenodd" clip-rule="evenodd" d="M63.5875 196.135L78.8929 186.872C81.8456 192.107 84.5316 196.537 90.9745 196.537C97.1503 196.537 101.044 194.121 101.044 184.724V120.819H119.839V184.99C119.839 204.456 108.428 213.317 91.7802 213.317C76.7449 213.317 68.0173 205.53 63.5872 196.133" fill="black"/>
<path fill-rule="evenodd" clip-rule="evenodd" d="M130.048 194.121L145.351 185.26C149.38 191.839 154.616 196.672 163.878 196.672C171.666 196.672 176.632 192.778 176.632 187.408C176.632 180.964 171.531 178.681 162.938 174.923L158.241 172.908C144.681 167.137 135.685 159.887 135.685 144.582C135.685 130.485 146.425 119.745 163.208 119.745C175.156 119.745 183.748 123.907 189.923 134.782L175.29 144.179C172.067 138.406 168.578 136.124 163.208 136.124C157.703 136.124 154.213 139.615 154.213 144.179C154.213 149.817 157.703 152.1 165.758 155.591L170.456 157.605C186.432 164.452 195.428 171.432 195.428 187.139C195.428 204.056 182.137 213.319 164.282 213.319C146.829 213.319 135.551 204.996 130.048 194.121" fill="black"/>
</g>
<defs>
<clipPath id="clip0_255_955">
<rect width="200" height="200" fill="white" transform="translate(11 29)"/>
</clipPath>
</defs>
</svg>
