<svg width="43" height="48" viewBox="0 0 43 48" fill="none" xmlns="http://www.w3.org/2000/svg">
<path d="M0 13.3333C0 5.96954 5.92362 0 13.2308 0H29.7692C37.0764 0 43 5.96954 43 13.3333V34.6667C43 42.0305 37.0764 48 29.7692 48H13.2308C5.92362 48 0 42.0305 0 34.6667V13.3333Z" fill="black"/>
<path d="M7.93846 12.6667C7.93846 11.5621 8.827 10.6667 9.92308 10.6667H33.0769C34.173 10.6667 35.0615 11.5621 35.0615 12.6667C35.0615 13.7712 34.173 14.6667 33.0769 14.6667H9.92308C8.827 14.6667 7.93846 13.7712 7.93846 12.6667Z" fill="white"/>
<path d="M7.93846 24C7.93846 22.8954 8.827 22 9.92308 22H33.0769C34.173 22 35.0615 22.8954 35.0615 24C35.0615 25.1046 34.173 26 33.0769 26H9.92308C8.827 26 7.93846 25.1046 7.93846 24Z" fill="white"/>
<path d="M7.93846 35.3333C7.93846 34.2288 8.827 33.3333 9.92308 33.3333H33.0769C34.173 33.3333 35.0615 34.2288 35.0615 35.3333C35.0615 36.4379 34.173 37.3333 33.0769 37.3333H9.92308C8.827 37.3333 7.93846 36.4379 7.93846 35.3333Z" fill="white"/>
</svg>
